<?xml version="1.0" encoding="utf-8"?>
<!-- Generator: Adobe Illustrator 27.6.1, SVG Export Plug-In . SVG Version: 6.00 Build 0)  -->
<svg version="1.1" id="Layer_1" xmlns="http://www.w3.org/2000/svg" xmlns:xlink="http://www.w3.org/1999/xlink" x="0px" y="0px"
	 viewBox="0 0 24 24" style="enable-background:new 0 0 24 24;" xml:space="preserve">
<style type="text/css">
	.st0{fill:#FFFFFF;}
</style>
<path class="st0" d="M6,21c-0.8,0-1.5-0.2-2.2-0.5C3,20.1,2.5,19.6,2,19c0.4,0,0.9-0.2,1.3-0.5C3.8,18.1,4,17.6,4,17
	c0-0.8,0.3-1.5,0.9-2.1C5.5,14.3,6.2,14,7,14s1.5,0.3,2.1,0.9C9.7,15.5,10,16.2,10,17c0,1.1-0.4,2-1.2,2.8C8,20.6,7.1,21,6,21z
	 M6,19c0.6,0,1-0.2,1.4-0.6S8,17.5,8,17c0-0.3-0.1-0.5-0.3-0.7C7.5,16.1,7.3,16,7,16c-0.3,0-0.5,0.1-0.7,0.3C6.1,16.5,6,16.7,6,17
	c0,0.4,0,0.7-0.1,1c-0.1,0.3-0.2,0.6-0.4,0.9c0.1,0,0.2,0,0.2,0H6z M11.8,15L9,12.2l9-9C18.1,3.1,18.4,3,18.6,3
	c0.3,0,0.5,0.1,0.7,0.3l1.4,1.3C20.9,4.8,21,5.1,21,5.3c0,0.3-0.1,0.5-0.3,0.7L11.8,15z"/>
</svg>
