<?xml version="1.0" encoding="utf-8"?>
<!-- Generator: Adobe Illustrator 27.6.1, SVG Export Plug-In . SVG Version: 6.00 Build 0)  -->
<svg version="1.1" id="Layer_1" xmlns="http://www.w3.org/2000/svg" xmlns:xlink="http://www.w3.org/1999/xlink" x="0px" y="0px"
	 viewBox="0 0 1080 1080" style="enable-background:new 0 0 1080 1080;" xml:space="preserve">
<style type="text/css">
	.st0{fill:#00064A;}
	.st1{fill:none;stroke:#1565C0;stroke-width:9.2083;stroke-miterlimit:10;}
	.st2{clip-path:url(#SVGID_00000048460402973984856360000003969986027879295619_);}
	.st3{fill:#1565C0;}
	.st4{clip-path:url(#SVGID_00000018923796397013767020000017875090548551411850_);}
	.st5{clip-path:url(#SVGID_00000012441569619982597190000014956158461808751011_);}
	.st6{fill:#F44336;}
</style>
<path class="st0" d="M892.8,1080H187.2C84.3,1080,0,995.7,0,892.8V187.2C0,84.3,84.3,0,187.2,0h705.5c103,0,187.2,84.3,187.2,187.2
	v705.5C1080,995.7,995.7,1080,892.8,1080z"/>
<path class="st1" d="M864.8,1037.2H215.2c-94.8,0-172.4-77.6-172.4-172.4V215.2c0-94.8,77.6-172.4,172.4-172.4h649.7
	c94.8,0,172.4,77.6,172.4,172.4v649.7C1037.2,959.7,959.7,1037.2,864.8,1037.2z"/>
<g>
	<g>
		<g>
			<defs>
				<rect id="SVGID_1_" x="201.2" y="394.7" width="677.7" height="69.6"/>
			</defs>
			<clipPath id="SVGID_00000097484032751121676830000018342299634573408141_">
				<use xlink:href="#SVGID_1_"  style="overflow:visible;"/>
			</clipPath>
			<g style="clip-path:url(#SVGID_00000097484032751121676830000018342299634573408141_);">
				<path class="st3" d="M498.4,395H201.2v68h677.7v-68H498.4z"/>
			</g>
		</g>
		<g>
			<g>
				<path class="st3" d="M856.1,655.6v-73h-190v-1c0-45.2-32.6-81.8-72.8-81.8H576v414.4h90.4l-0.3-258.7H856.1z"/>
			</g>
		</g>
		<g>
			<defs>
				<rect id="SVGID_00000026155556171210939200000001330370222359075474_" x="704" y="845.2" width="174.8" height="70.3"/>
			</defs>
			<clipPath id="SVGID_00000095309208491724197750000005453080963918547338_">
				<use xlink:href="#SVGID_00000026155556171210939200000001330370222359075474_"  style="overflow:visible;"/>
			</clipPath>
			<g style="clip-path:url(#SVGID_00000095309208491724197750000005453080963918547338_);">
				<path class="st3" d="M705.1,914.4h173.8v-68.7h-81.9C746.2,845.7,705.1,876.5,705.1,914.4z"/>
			</g>
		</g>
		<g>
			<g>
				<path class="st3" d="M393.8,583.2c0-46-32.6-83.3-72.8-83.3h-15.5v338.4H201.2v76.1h297.2v-76.1H393.8V583.2z"/>
			</g>
		</g>
	</g>
	<g>
		<defs>
			<rect id="SVGID_00000173119041615496586390000015519698227547074749_" x="277.5" y="71" width="525" height="295.2"/>
		</defs>
		<clipPath id="SVGID_00000008851371762294128220000015521601770355766657_">
			<use xlink:href="#SVGID_00000173119041615496586390000015519698227547074749_"  style="overflow:visible;"/>
		</clipPath>
		<g style="clip-path:url(#SVGID_00000008851371762294128220000015521601770355766657_);">
			<path class="st6" d="M587.3,71c36,71.8-128.9,116-144.3,175.8c-14,54.9,97.9,118.8,98,118.8c-17-22.7-29.3-41.5-46.4-76.9
				C465.7,228.9,665.2,167.1,587.3,71z M703.7,169.2c0,0-124.4,7.6-130.7,83.4c-2.8,33.7,32.7,51.8,33.7,76.3
				c0.9,20-21.2,36.7-21.2,36.7s36.5-5.6,49-36.2c13.8-33.9-23.3-58.7-19.2-85.9C619.1,217.5,703.7,169.2,703.7,169.2z"/>
		</g>
	</g>
</g>
</svg>
