<?xml version="1.0" encoding="utf-8"?>
<!-- Generator: Adobe Illustrator 27.6.1, SVG Export Plug-In . SVG Version: 6.00 Build 0)  -->
<svg version="1.1" id="Layer_1" xmlns="http://www.w3.org/2000/svg" xmlns:xlink="http://www.w3.org/1999/xlink" x="0px" y="0px"
	 viewBox="0 0 24 24" style="enable-background:new 0 0 24 24;" xml:space="preserve">
<style type="text/css">
	.st0{fill:#FFFFFF;}
</style>
<path class="st0" d="M10.1,23c-0.5,0-1-0.1-1.4-0.3c-0.4-0.2-0.8-0.5-1.1-1l-6.4-9.3l0.6-0.6c0.3-0.3,0.7-0.5,1.1-0.6
	s0.8,0.1,1.2,0.3l2.9,2V4c0-0.3,0.1-0.5,0.3-0.7C7.5,3.1,7.7,3,8,3c0.3,0,0.5,0.1,0.7,0.3C8.9,3.5,9,3.7,9,4v13.4l-3.7-2.6l3.9,5.7
	c0.1,0.1,0.2,0.2,0.3,0.3C9.7,21,9.9,21,10.1,21H17c0.6,0,1-0.2,1.4-0.6S19,19.5,19,19V5c0-0.3,0.1-0.5,0.3-0.7
	C19.5,4.1,19.7,4,20,4s0.5,0.1,0.7,0.3C20.9,4.5,21,4.7,21,5v14c0,1.1-0.4,2-1.2,2.8C19,22.6,18.1,23,17,23H10.1z M11,12V2
	c0-0.3,0.1-0.5,0.3-0.7S11.7,1,12,1s0.5,0.1,0.7,0.3S13,1.7,13,2v10H11z M15,12V3c0-0.3,0.1-0.5,0.3-0.7C15.5,2.1,15.7,2,16,2
	s0.5,0.1,0.7,0.3C16.9,2.5,17,2.7,17,3v9H15z"/>
</svg>
